<?xml version="1.0" encoding="utf-8"?>
<!-- Generator: Adobe Illustrator 26.0.3, SVG Export Plug-In . SVG Version: 6.00 Build 0)  -->
<svg version="1.0" id="Layer_1" xmlns="http://www.w3.org/2000/svg" xmlns:xlink="http://www.w3.org/1999/xlink" x="0px" y="0px"
	 viewBox="0 0 915 699.7" style="enable-background:new 0 0 915 699.7;" xml:space="preserve">
<style type="text/css">
	.st0{fill:#F8AD1B;}
	.st1{fill:#1D4231;}
</style>
<g id="cal-poly-pomona">
	<g id="cal-poly-pomona_BGD">
		<g id="cal-poly-pomona-2">
			<g id="g10">
				<g id="g12">
					<path id="path14" class="st0" d="M511.1,555c0,0-35.9-35.5-20.4-84.3c8.4-26.4,34.9-54.5,60.2-64.7c13.2,7.8,28.2,11.9,43.5,12
						h0.3c42.1,1.9,79.5,13.2,103.3,22.2c19.3,7.7,22.2,11.9,24.6,18c5.4,13.7,15.5,15.2,18.8,15.8h0.2c1.6,0.3,3.3,0.4,4.9,0.4
						c5.7,0,16.9-1.5,22.8-6.9c0.6-0.5,1.1-1.1,1.6-1.7c0.7,0.1,1.4,0.1,2,0.1l0,0c21.2,0,33-28,35.8-39.1
						c5.3-8.4,7.7-18.3,6.9-28.2c-0.9-9.9-6-18.8-13.9-24.7c-23.8-36.7-94.6-103.6-135-140.5l-1.7-1.6
						c-15.7-14.4-35.3-26.7-49.3-34.6c-8.1-8-32.2-35.1-36-39.1c-1.9-2.1-4.7-3.3-7.5-3.3c-5.9,0-9.3,4.2-11.2,9.9
						c-7.7-5.9-15-11.8-22-17.5c-1.9-1.5-4.2-2.4-6.6-2.4c-6.9,0-11.3,5.6-13.5,17.5c-40.6-14.5-102.2-15.5-102.2-15.5l13.5,12
						c-90.8-7.4-158.6,16.2-158.6,16.2s32.8,15,45.8,21.5c-88.2,10.7-182.6-23.6-182.6-23.6s16.6,42,43.6,67.9
						c-30.3-0.6-65.7-10.4-65.7-10.4s14.2,34.6,34.7,56.1c-16,7.5-48.4,30-48.4,30s149.6,11.1,228.6,127.1S488.6,555,511.1,555"/>
					<path id="path16" class="st1" d="M591,237.3c-18.4-9.9-36.3-27.8-36.3-27.8c0.8,9.1,6.3,18.5,10.4,21.9
						C571.4,236.7,591,237.3,591,237.3"/>
					<path id="path18" class="st1" d="M636.3,292.5c2.1,4.8,17.5,7.1,23.6,5.7c7.4,3.9,15.7,9.5,15.7,9.5
						c-6.7-12.1-15.1-23.2-25-32.9c-0.7-0.6-20.5-13.8-41.6-21.6c10.1,7.2,26.5,19.9,32.8,31.2c-2.9-1.5-6-2.6-9.3-3.1
						C634.3,286.7,636.3,292.6,636.3,292.5"/>
					<path id="path20" class="st1" d="M795.1,381.1c-26.7-42.5-125.6-132-136.2-141.8c-15.3-14.1-34.6-26.1-48.7-34
						c-13.7-13.5-27.2-29.8-37.1-40.1c-2.4-2.5-4.9,5.2-5.6,16.7c-13.3-10-24.7-19-34.4-26.9c-2.7-2.2-5.7,7.4-6.6,20.1
						c-24.4-8.3-53.1-15.3-84.1-17c4.1,3.8,7.6,8.1,10.4,12.9c-88.2-11.3-154.5,6.9-154.5,6.9s23.1,10.6,46.6,23.4
						c-84,22-192.9-12.5-192.9-12.5s16.8,35.6,49.3,61.5c-20.8,1.4-44.4,0.3-72.2-6c0,0,10.7,22.2,32.9,45.7
						c-13.3,6.6-26.2,14-38.6,22.1c61.4,10.2,140.8,38.4,200.8,112.3l0,0c24.5-101.4,115.5-149.7,115.5-149.7
						c-43.5,12.4-76.2,29.7-99.8,45.8c52-60,94.6-86.8,158.6-100.8c-107.3,5.8-216.5,67.7-262.8,100.6
						c-10.6-5.4-21.5-10.2-32.6-14.2c4.1-2.9,8.5-5.8,13.3-8.8c-11.9-7.6-22.8-16.7-32.5-27c36.4,1.6,64.4-5.3,82.3-11.8
						c-30.4-15.1-45.9-34-45.9-34c35.7,8.5,86.7,9,139.1-9c16-5.5,33.1-11,56.5-11.5c-8.2-5.5-19.2-10.2-34.5-13.6
						c0,0,77.8-14.6,146.4,10.1c0.4,2.2,1,4.4,1.6,6.5c3.5,8,12.8,14.9,21.5,19.9c-10.2-17.4-10-40.5-5.8-37.3
						c7.3,5.6,32.8,21.5,55.9,37.3c13.6,4.5,32.9,15.9,62.1,41.4c24.1,21.1,115.7,104.7,123.5,119.8c-13.1,1.2-19.7,23.1,4.1,28
						c-21.3,2-31.4-19.9-19.7-30.3c-4.2-5.4-16.5-19.7-32.6-35.3c0,0,13.7,22.8,12.9,36.5c-13.6,4-20.6,12.8-23.8,28.5
						c-30.5-7.9-52.3-35.4-70.4-39.6c1.7-4.4,2.5-9.1,2.6-13.8c-12.8,14.8-34.7,23.5-59.3,21.7c-38.8-3-69.8-31.2-69.1-63
						c0.1-2.3,0.3-4.7,0.7-7c-6.1,8.7-9.6,19-9.8,29.6c-0.1,6.8,1,13.6,3.3,20.1c-23.9,55.4-138.5,31.3-138.9,134.2
						c49.3,48.2,105.4,47.5,105.4,47.5c-0.3-0.3-22.9-35-9.8-76.3c9.7-30.3,40.9-62.3,69.8-71.9l0.5,0c12.7,8.3,27.6,12.8,42.8,12.8
						c46.7,2,86.6,15.3,106.5,22.9c19.4,7.7,25.8,13.1,29.7,23.2c3.6,9.1,9.4,9.7,11.9,10.1c5.6,0.9,16.3-0.8,19.9-4.2
						c1.5-1.7,2.5-3.8,2.6-6.1c19.7,10.5,33.8-24.4,34.6-32C807.5,415.7,812.4,392.9,795.1,381.1"/>
					<polyline id="path22" class="st1" points="506.3,532.2 515.7,532.2 515.7,534 512.1,534 512.1,543.3 509.9,543.3 509.9,534 
						506.3,534 506.3,532.2 					"/>
					<polyline id="path24" class="st1" points="523.7,540.1 520.8,532.2 517.6,532.2 517.6,543.3 519.7,543.3 519.7,534.3 
						522.8,543.3 524.6,543.3 527.6,534.3 527.6,543.3 529.7,543.3 529.7,532.2 526.5,532.2 523.7,540.1 					"/>
				</g>
			</g>
		</g>
	</g>
</g>
</svg>
